<?xml version="1.0" encoding="utf-8"?>
<!-- Generator: Adobe Illustrator 18.1.1, SVG Export Plug-In . SVG Version: 6.00 Build 0)  -->
<svg version="1.1" id="Layer_1" xmlns="http://www.w3.org/2000/svg" xmlns:xlink="http://www.w3.org/1999/xlink" x="0px" y="0px"
	 viewBox="1.1 203.9 128 128" enable-background="new 1.1 203.9 128 128" xml:space="preserve">
<g id="Your_Icon">
	<path d="M123.5,230.9c-1.7-1.4-3.6-2.2-5.7-2.8c2.9-4.8,3.3-9,3.1-11.9c-0.5-4.7-2.9-8-4.8-9.5c-1.6-1.2-3.3-2.1-5.2-2.4
		c-2.9-0.5-5.7,0.3-8.1,1.7c-1.6-0.9-3.5-1.6-5.2-1.9c-5.4-0.9-10.2,1-13.8,5.4c-1.4,1.6-2.9,3.6-4.8,6.2
		c-6.6,8.5-16.4,21.4-26.6,30.4c-6.6,5.9-14,11.8-20.8,16.8c-6.6,5.2-12.3,9.7-15.9,13.1c-5.7,5.5-6.6,14-4.5,19
		c0.2,0.3,0.3,0.5,0.3,0.9c-5.5,3.6-9,8.5-10,13.5c-0.7,3.5,0,6.7,1.9,9.5c5.4,7.8,19.2,4.5,23,2.4c0,0.2,0.2,0.3,0.2,0.5
		c2.2,5.2,6.7,9,12.3,9.9c2.4,0.3,5,0.2,7.3-0.7c5.4-1.9,31.8-18,48.6-35.1c10.9-11.1,19.6-20.6,31.8-42.5
		C129.8,248.1,131.2,236.6,123.5,230.9z M101.2,229.4c-7.1,0.3-10.7,1.6-12.6,4.3c-0.9,1.2-1.4,2.8-1.9,4.8c-1.2,3.8-2.8,9-7.3,13
		c-2.1,1.9-5,3.5-7.8,4.8c-2.1,1-4.2,2.1-6.1,3.5c-0.9,0.5-1.6,1.2-2.2,1.7c-1,0.9-1.7,1.9-2.6,3.1c-1.2,1.7-2.1,3.6-3.1,5.5
		c-1.9,3.6-3.8,7.3-6.6,9.2c-2.9,2.1-6.9,3.6-10.4,5c-2.8,1-5,2.1-6.6,3.1c-2.6,1.7-5.2,6.7-7.4,11.9c-0.3,1-0.9,2.1-1.2,2.9
		c-0.2,0.5-0.3,0.9-0.5,1.4l-0.3,0.7c0,0.2-0.2,0.5-0.3,0.9c-0.5,1-1.7,2.4-3.3,2.2c-0.3,0-0.7-0.2-1.2-0.3
		c-1.7-0.9-2.1-1.7-1.7-3.6c0.2-0.5,0.3-1.2,0.5-2.1c0-0.2,0.2-0.5,0.3-0.9c0.2-0.9,0.5-1.7,0.9-2.8v-0.2c0.5-1.4,1-3.1,1.9-4.8
		c0.9-1.9,1.7-3.6,2.8-5.5c1.6-2.8,3.6-5.4,5.7-6.7c1.7-1,3.5-1.6,5.5-1.9c0.2,0,0.5,0,0.7-0.2c1.7-0.3,3.6-0.7,5.7-1.4
		c1.7-0.5,3.5-1.6,5.4-2.9c1.7-1.4,3.1-3.1,4.3-5.2c0.9-1.4,1.6-2.9,2.2-4.3c0.3-0.9,0.9-1.6,1.2-2.4c1.2-2.2,2.4-4.5,4.2-6.1
		c1.9-1.7,3.6-2.8,5.4-3.6c0.7-0.3,1.2-0.7,1.9-0.9c1.7-0.9,3.5-1.7,5.4-2.9c0.7-0.5,1.4-1,2.1-1.6c2.4-2.1,3.8-4.3,5-6.7
		c0.7-1.7,1.4-3.5,1.9-5c0.3-1.2,0.7-2.2,1.2-3.3c0.3-0.9,0.7-1.7,1.2-2.2c0.9-1.2,1.9-2.2,3.1-3.1c1.7-1.2,3.6-2.2,5.5-2.8
		c1.4-0.3,2.8-0.7,4.2-0.9c2.2-0.3,4.5-0.5,6.9-0.5c0.2,0,0.5,0,0.7,0c0.3,0,0.5,0.2,0.9,0.3c1,0.5,1.9,1.4,2.1,2.6
		c0,0.3,0.2,0.5,0.2,0.9c0,1.4-0.7,2.2-1.7,2.8c-0.7,0.3-1.4,0.5-2.1,0.5C102.3,229.2,101.7,229.4,101.2,229.4z M19.2,280.7
		c3.3-3.3,9-7.6,15.4-12.8c6.6-5.2,14.2-11.1,20.9-17.1c10.7-9.5,20.8-22.7,27.5-31.3c1.9-2.4,3.5-4.5,4.7-6.1
		c2.9-3.6,6.4-3.8,8.8-3.5c0.5,0,0.9,0.2,1.4,0.3c-0.5,0.7-0.9,1.2-1.4,1.9c-0.5,0.7-2.1,3.1-4.7,6.6c-4.8,1.2-9.2,3.5-12.3,8.1
		c-1.4,2.1-2.2,4.3-2.9,6.7c-1.2,3.5-2.4,7.1-5.5,9.7c-2.1,1.7-4.2,2.8-6.4,3.8c-2.6,1.2-5.2,2.6-8.1,5.2c-2.9,2.8-4.7,6.4-6.4,9.9
		c-1.6,3.1-2.9,6.2-5,7.8c-3.3,2.4-6.4,2.9-9.3,3.5c-2.6,0.5-5.2,0.9-7.8,2.6c-5,3.3-8.7,10.4-10.9,16.1c-0.3,0.2-0.7,0.5-0.9,0.7
		l0,0C14.5,289.7,15.4,284.4,19.2,280.7z M121.8,250.8c-11.9,21.4-20.1,30.3-31,41.3c-16.4,16.6-42.2,32.2-46.7,33.7
		c-1.4,0.5-2.9,0.7-4.5,0.3c-3.6-0.5-6.6-2.9-8.1-6.6c-0.2-0.5-0.3-1.2-0.5-1.9c-0.2-1.2-0.2-2.6,0.2-4.2c0.5-2.4,1.7-5,3.8-6.9
		c3.3-3.3,9-7.4,15.6-12.3c0.3-0.2,0.5-0.3,0.9-0.7c5.9-4.3,12.3-9.2,18.3-14.4c1.2-1,2.2-1.9,3.5-2.9c4.2-3.6,8.1-8,11.9-12.3
		c5.5-6.4,10.6-13.1,14.4-18.3c0.3-0.3,0.5-0.7,0.9-1.2c2.2-3.1,4.3-5.7,5.7-7.6c1.2-1.6,2.6-2.4,4-3.1c1.4-0.5,2.8-0.7,4-0.7
		c0.5,0,0.9,0,1.4,0.2c1.7,0.3,3.6,1,5,2.2C124.9,239.2,124.2,246.7,121.8,250.8z"/>
</g>
</svg>
