<?xml version="1.0" encoding="utf-8"?>
<!-- Generator: Adobe Illustrator 18.1.1, SVG Export Plug-In . SVG Version: 6.00 Build 0)  -->
<svg version="1.1" id="Layer_1" xmlns="http://www.w3.org/2000/svg" xmlns:xlink="http://www.w3.org/1999/xlink" x="0px" y="0px"
	 viewBox="-94.6 108.4 74 74" enable-background="new -94.6 108.4 74 74" xml:space="preserve">
<g id="Your_Icon">
	<path d="M-23.9,123.9c-1-0.8-2.1-1.3-3.3-1.6c1.7-2.8,1.9-5.2,1.8-6.9c-0.3-2.7-1.7-4.6-2.8-5.5c-0.9-0.7-1.9-1.2-3-1.4
		c-1.7-0.3-3.3,0.2-4.7,1c-0.9-0.5-2-0.9-3-1.1c-3.1-0.5-5.9,0.6-8,3.1c-0.8,0.9-1.7,2.1-2.8,3.6c-3.8,4.9-9.5,12.4-15.4,17.6
		c-3.8,3.4-8.1,6.8-12,9.7c-3.8,3-7.1,5.6-9.2,7.6c-3.3,3.2-3.8,8.1-2.6,11c0.1,0.2,0.2,0.3,0.2,0.5c-3.2,2.1-5.2,4.9-5.8,7.8
		c-0.4,2,0,3.9,1.1,5.5c3.1,4.5,11.1,2.6,13.3,1.4c0,0.1,0.1,0.2,0.1,0.3c1.3,3,3.9,5.2,7.1,5.7c1.4,0.2,2.9,0.1,4.2-0.4
		c3.1-1.1,18.4-10.4,28.1-20.3c6.3-6.4,11.3-11.9,18.4-24.6C-20.3,133.8-19.5,127.2-23.9,123.9z M-36.8,123
		c-4.1,0.2-6.2,0.9-7.3,2.5c-0.5,0.7-0.8,1.6-1.1,2.8c-0.7,2.2-1.6,5.2-4.2,7.5c-1.2,1.1-2.9,2-4.5,2.8c-1.2,0.6-2.4,1.2-3.5,2
		c-0.5,0.3-0.9,0.7-1.3,1c-0.6,0.5-1,1.1-1.5,1.8c-0.7,1-1.2,2.1-1.8,3.2c-1.1,2.1-2.2,4.2-3.8,5.3c-1.7,1.2-4,2.1-6,2.9
		c-1.6,0.6-2.9,1.2-3.8,1.8c-1.5,1-3,3.9-4.3,6.9c-0.2,0.6-0.5,1.2-0.7,1.7c-0.1,0.3-0.2,0.5-0.3,0.8l-0.2,0.4
		c0,0.1-0.1,0.3-0.2,0.5c-0.3,0.6-1,1.4-1.9,1.3c-0.2,0-0.4-0.1-0.7-0.2c-1-0.5-1.2-1-1-2.1c0.1-0.3,0.2-0.7,0.3-1.2
		c0-0.1,0.1-0.3,0.2-0.5c0.1-0.5,0.3-1,0.5-1.6c0,0,0-0.1,0-0.1c0.3-0.8,0.6-1.8,1.1-2.8c0.5-1.1,1-2.1,1.6-3.2
		c0.9-1.6,2.1-3.1,3.3-3.9c1-0.6,2-0.9,3.2-1.1c0.1,0,0.3,0,0.4-0.1c1-0.2,2.1-0.4,3.3-0.8c1-0.3,2-0.9,3.1-1.7c1-0.8,1.8-1.8,2.5-3
		c0.5-0.8,0.9-1.7,1.3-2.5c0.2-0.5,0.5-0.9,0.7-1.4c0.7-1.3,1.4-2.6,2.4-3.5c1.1-1,2.1-1.6,3.1-2.1c0.4-0.2,0.7-0.4,1.1-0.5
		c1-0.5,2-1,3.1-1.7c0.4-0.3,0.8-0.6,1.2-0.9c1.4-1.2,2.2-2.5,2.9-3.9c0.4-1,0.8-2,1.1-2.9c0.2-0.7,0.4-1.3,0.7-1.9
		c0.2-0.5,0.4-1,0.7-1.3c0.5-0.7,1.1-1.3,1.8-1.8c1-0.7,2.1-1.3,3.2-1.6c0.8-0.2,1.6-0.4,2.4-0.5c1.3-0.2,2.6-0.3,4-0.3
		c0.1,0,0.3,0,0.4,0c0.2,0,0.3,0.1,0.5,0.2c0.6,0.3,1.1,0.8,1.2,1.5c0,0.2,0.1,0.3,0.1,0.5c0,0.8-0.4,1.3-1,1.6
		c-0.4,0.2-0.8,0.3-1.2,0.3C-36.2,122.9-36.5,123-36.8,123z M-84.2,152.7c1.9-1.9,5.2-4.4,8.9-7.4c3.8-3,8.2-6.4,12.1-9.9
		c6.2-5.5,12-13.1,15.9-18.1c1.1-1.4,2-2.6,2.7-3.5c1.7-2.1,3.7-2.2,5.1-2c0.3,0,0.5,0.1,0.8,0.2c-0.3,0.4-0.5,0.7-0.8,1.1
		c-0.3,0.4-1.2,1.8-2.7,3.8c-2.8,0.7-5.3,2-7.1,4.7c-0.8,1.2-1.3,2.5-1.7,3.9c-0.7,2-1.4,4.1-3.2,5.6c-1.2,1-2.4,1.6-3.7,2.2
		c-1.5,0.7-3,1.5-4.7,3c-1.7,1.6-2.7,3.7-3.7,5.7c-0.9,1.8-1.7,3.6-2.9,4.5c-1.9,1.4-3.7,1.7-5.4,2c-1.5,0.3-3,0.5-4.5,1.5
		c-2.9,1.9-5,6-6.3,9.3c-0.2,0.1-0.4,0.3-0.5,0.4c0,0,0,0,0,0C-86.9,157.9-86.4,154.8-84.2,152.7z M-24.9,135.4
		c-6.9,12.4-11.6,17.5-17.9,23.9c-9.5,9.6-24.4,18.6-27,19.5c-0.8,0.3-1.7,0.4-2.6,0.2c-2.1-0.3-3.8-1.7-4.7-3.8
		c-0.1-0.3-0.2-0.7-0.3-1.1c-0.1-0.7-0.1-1.5,0.1-2.4c0.3-1.4,1-2.9,2.2-4c1.9-1.9,5.2-4.3,9-7.1c0.2-0.1,0.3-0.2,0.5-0.4
		c3.4-2.5,7.1-5.3,10.6-8.3c0.7-0.6,1.3-1.1,2-1.7c2.4-2.1,4.7-4.6,6.9-7.1c3.2-3.7,6.1-7.6,8.3-10.6c0.2-0.2,0.3-0.4,0.5-0.7
		c1.3-1.8,2.5-3.3,3.3-4.4c0.7-0.9,1.5-1.4,2.3-1.8c0.8-0.3,1.6-0.4,2.3-0.4c0.3,0,0.5,0,0.8,0.1c1,0.2,2.1,0.6,2.9,1.3
		C-23.1,128.7-23.5,133-24.9,135.4z"/>
</g>
</svg>
