<svg xmlns="http://www.w3.org/2000/svg" xmlns:xlink="http://www.w3.org/1999/xlink" version="1.1" x="0px" y="0px" width="100px" height="100px" viewBox="5.0 -10.0 100.0 135.0" enable-background="new 0 0 100 100" xml:space="preserve">
<g id="Captions">
	<rect x="-192" width="185" height="99"/>
	<rect y="-36" width="100" height="30"/>
	<text transform="matrix(1 0 0 1 66 -19.5)" fill="#000000" font-family="'Helvetica'" font-size="2.4">http://thenounproject.com</text>
	<text transform="matrix(1 0 0 1 7.166 -24.5)"><tspan x="0" y="0" fill="#000000" font-family="'Helvetica-Bold'" font-size="6.1578">The Noun Project</tspan><tspan x="1.12" y="4.8" fill="#000000" font-family="'Helvetica-Bold'" font-size="4">Icon Template</tspan></text>
	<text transform="matrix(1 0 0 1 -178.5 10.5)" fill="#000000" font-family="'Helvetica-Bold'" font-size="6.1578">Reminders</text>
	<line fill="#000000" stroke="#FFFFFF" stroke-miterlimit="10" x1="8" y1="-14.5" x2="18" y2="-14.5"/>
	<line fill="#000000" stroke="#FFFFFF" stroke-miterlimit="10" x1="-179" y1="16.5" x2="-162" y2="16.5"/>
	<g>
		<g>
			<g>
				<rect x="-170.802" y="31.318" fill="#000000" width="8.721" height="8.642"/>
				<path fill="#000000" d="M-164.455,42.312h4.747v-4.703h-4.747V42.312z M-159.266,42.749h-5.63V37.17h5.63V42.749      L-159.266,42.749z M-166.221,44.062h8.279v-8.203h-8.279V44.062L-166.221,44.062z M-157.5,44.5h-9.163v-9.079h9.163V44.5      L-157.5,44.5z"/>
				<polygon fill="#000000" points="-166.149,44.133 -166.292,43.991 -158.013,35.787 -157.871,35.929     "/>
			</g>
		</g>
	</g>
	<rect x="-179" y="58" fill="none" width="35" height="32.5"/>
	<text transform="matrix(1 0 0 1 -179 60.1572)"><tspan x="0" y="0" fill="#000000" font-family="'Helvetica-Bold'" font-size="3">Strokes</tspan><tspan x="0" y="5" fill="#000000" font-family="'Helvetica'" font-size="2.4">Try to keep strokes at 4px</tspan><tspan x="0" y="10" fill="#000000" font-family="'Helvetica'" font-size="2.4">Minimum stroke weight is 2px</tspan><tspan x="0" y="14.5" fill="#000000" font-family="'Helvetica'" font-size="2.4">For thicker strokes use even </tspan><tspan x="0" y="17.5" fill="#000000" font-family="'Helvetica'" font-size="2.4">numbers: 6px, 8px etc.</tspan><tspan x="0" y="22" fill="#000000" font-family="'Helvetica-Bold'" font-size="2.4">Remember to expand strokes </tspan><tspan x="0" y="25" fill="#000000" font-family="'Helvetica-Bold'" font-size="2.4">before saving as an SVG </tspan></text>
	<rect x="-136.5" y="58" fill="none" width="35" height="32.5"/>
	<text transform="matrix(1 0 0 1 -136.5 60.1572)"><tspan x="0" y="0" fill="#000000" font-family="'Helvetica-Bold'" font-size="3">Size</tspan><tspan x="0" y="5" fill="#000000" font-family="'Helvetica'" font-size="2.4">Cannot be wider or taller than </tspan><tspan x="0" y="8.5" fill="#000000" font-family="'Helvetica'" font-size="2.4">100px (artboard size)</tspan><tspan x="0" y="13.5" fill="#000000" font-family="'Helvetica'" font-size="2.4">Scale your icon to fill as much of </tspan><tspan x="0" y="16.5" fill="#000000" font-family="'Helvetica'" font-size="2.4">the artboard as possible</tspan></text>
	<rect x="-94" y="58" fill="none" width="35" height="32.5"/>
	<text transform="matrix(1 0 0 1 -94 60.1572)"><tspan x="0" y="0" fill="#000000" font-family="'Helvetica-Bold'" font-size="3">Ungroup</tspan><tspan x="0" y="5" fill="#000000" font-family="'Helvetica'" font-size="2.4">If your design has more than one </tspan><tspan x="0" y="8" fill="#000000" font-family="'Helvetica'" font-size="2.4">shape, make sure to ungroup</tspan></text>
	<rect x="-50" y="58" fill="none" width="35" height="32.5"/>
	<text transform="matrix(1 0 0 1 -50 60.1572)"><tspan x="0" y="0" fill="#000000" font-family="'Helvetica-Bold'" font-size="3">Save as</tspan><tspan x="0" y="5" fill="#000000" font-family="'Helvetica'" font-size="2.4">Save as .SVG and make sure </tspan><tspan x="0" y="8" fill="#000000" font-family="'Helvetica'" font-size="2.4">&#8220;Use Artboards&#8221; is checked</tspan></text>
	<text transform="matrix(1.0074 0 0 1 -125.542 30.5933)" fill="#000000" font-family="'Helvetica'" font-size="2.5731">100px</text>
	<text transform="matrix(1.0074 0 0 1 -41 39)" fill="#000000" font-family="'Helvetica-Bold'" font-size="5.1462">.SVG</text>
	<rect x="-126.514" y="34.815" fill="#000000" width="10.261" height="10.185"/>
	<rect x="-126.477" y="31.766" fill="#000000" width="0.522" height="2.337"/>
	<rect x="-116.812" y="31.766" fill="#000000" width="0.523" height="2.337"/>
	<rect x="-127" y="32.337" fill="#000000" width="11.233" height="0.572"/>
	<g>
		<rect x="-83.805" y="33.844" fill="#000000" width="10.305" height="10.156"/>
		<rect x="-76.809" y="28.707" fill="#000000" width="3.308" height="3.261"/>
	</g>
	<rect x="-178.5" y="22.5" fill="#000000" stroke="#FFFFFF" stroke-miterlimit="10" width="30" height="30"/>
	<rect x="-136.5" y="22.5" fill="#000000" stroke="#FFFFFF" stroke-miterlimit="10" width="30" height="30"/>
	<rect x="-93.5" y="22.5" fill="#000000" stroke="#FFFFFF" stroke-miterlimit="10" width="30" height="30"/>
	<rect x="-49.5" y="22.5" fill="#000000" stroke="#FFFFFF" stroke-miterlimit="10" width="30" height="30"/>
</g>
<g id="Your_Icon">
	<path fill="#000000" d="M95.591,20.975c-1.353-1.015-2.887-1.746-4.498-2.182c2.353-3.749,2.619-7.042,2.363-9.268   c-0.409-3.604-2.305-6.23-3.808-7.387c-1.257-0.97-2.618-1.591-4.052-1.832c-2.238-0.375-4.399,0.221-6.279,1.326   c-1.275-0.71-2.658-1.205-4.082-1.445c-4.167-0.696-7.997,0.79-10.78,4.203c-1.013,1.241-2.28,2.893-3.745,4.809   c-5.096,6.64-12.806,16.694-20.84,23.81c-5.184,4.588-11.001,9.138-16.134,13.146c-5.179,4.057-9.651,7.551-12.426,10.249   c-4.499,4.373-5.159,10.898-3.5,14.812c0.094,0.226,0.21,0.426,0.314,0.632c-4.319,2.891-7.084,6.59-7.807,10.468   c-0.502,2.692,0.066,5.291,1.538,7.447c4.186,6.133,15.037,3.488,17.946,1.867c0.055,0.145,0.109,0.324,0.166,0.468   c1.739,4.102,5.309,6.979,9.558,7.688c1.94,0.326,3.885,0.164,5.626-0.483C39.315,97.763,60,85.24,73.148,71.93   C81.646,63.333,88.401,55.918,98,38.763C100.543,34.214,101.533,25.429,95.591,20.975z M78.255,19.649   c-5.479,0.246-8.369,1.236-9.845,3.338c-0.63,0.896-1.025,2.152-1.531,3.738c-0.926,2.942-2.208,6.981-5.669,10.188   c-1.638,1.516-3.89,2.672-6.078,3.773c-1.606,0.821-3.246,1.657-4.713,2.673c-0.64,0.439-1.249,0.895-1.802,1.416   c-0.746,0.695-1.398,1.522-2.004,2.421c-0.887,1.333-1.659,2.813-2.414,4.265c-1.455,2.812-2.958,5.708-5.167,7.201   c-2.34,1.584-5.417,2.812-8.13,3.893c-2.122,0.845-3.953,1.575-5.147,2.367c-2.077,1.366-4.069,5.279-5.744,9.287   c-0.329,0.782-0.642,1.571-0.949,2.343c-0.134,0.347-0.262,0.686-0.396,1.021l-0.217,0.565c-0.047,0.116-0.146,0.354-0.3,0.634   c-0.434,0.796-1.3,1.957-2.593,1.737c-0.289-0.045-0.595-0.149-0.921-0.325c-1.347-0.711-1.665-1.391-1.363-2.868   c0.091-0.443,0.231-0.95,0.419-1.556c0.062-0.195,0.127-0.415,0.203-0.651c0.193-0.609,0.434-1.351,0.721-2.172   c0.018-0.06,0.037-0.113,0.06-0.18c0.397-1.131,0.872-2.406,1.438-3.742c0.609-1.426,1.312-2.893,2.117-4.28   c1.267-2.181,2.773-4.142,4.512-5.288c1.314-0.865,2.724-1.171,4.326-1.451c0.174-0.024,0.354-0.061,0.538-0.096   c1.383-0.229,2.875-0.499,4.466-1.075c1.329-0.471,2.722-1.161,4.201-2.252c1.393-1.021,2.434-2.452,3.334-4.023   c0.625-1.086,1.183-2.237,1.725-3.378c0.301-0.64,0.608-1.277,0.927-1.907c0.9-1.791,1.905-3.488,3.253-4.699   c1.436-1.295,2.784-2.106,4.158-2.817c0.481-0.245,0.968-0.486,1.458-0.725c1.336-0.651,2.71-1.316,4.121-2.292   c0.519-0.366,1.046-0.762,1.58-1.227c1.854-1.602,3.016-3.438,3.865-5.294c0.599-1.306,1.045-2.637,1.46-3.883   c0.303-0.906,0.6-1.777,0.931-2.567c0.278-0.67,0.579-1.286,0.944-1.806c0.696-0.986,1.498-1.797,2.38-2.478   c1.298-0.996,2.772-1.701,4.37-2.187c1.04-0.32,2.13-0.551,3.246-0.72c1.75-0.256,3.567-0.366,5.385-0.417   c0.174,0,0.348,0.006,0.516,0.036c0.23,0.04,0.448,0.12,0.659,0.215c0.827,0.376,1.441,1.131,1.648,2.062   c0.043,0.205,0.076,0.41,0.083,0.626c0.021,1.035-0.552,1.731-1.333,2.131c-0.484,0.245-1.048,0.375-1.604,0.391   C78.997,19.624,78.618,19.639,78.255,19.649z M14.184,59.729c2.61-2.538,6.995-5.972,12.077-9.939   c5.183-4.054,11.057-8.642,16.333-13.321c8.354-7.396,16.215-17.645,21.412-24.425c1.448-1.881,2.694-3.508,3.668-4.7   c2.289-2.812,5.017-3.026,6.899-2.706c0.348,0.06,0.696,0.149,1.039,0.25c-0.383,0.475-0.727,0.965-1.033,1.461   c-0.34,0.55-1.684,2.456-3.688,5.174c-3.736,0.936-7.113,2.742-9.593,6.28c-1.105,1.572-1.711,3.393-2.355,5.319   c-0.901,2.698-1.829,5.485-4.268,7.592c-1.646,1.416-3.261,2.201-4.966,3.033c-2.021,0.98-4.109,1.997-6.411,4.078   c-2.338,2.106-3.695,4.963-5.009,7.726c-1.191,2.497-2.311,4.849-3.962,6.066c-2.622,1.936-4.983,2.337-7.267,2.728   c-2.004,0.34-4.079,0.69-6.113,2.04c-3.937,2.589-6.722,8.062-8.499,12.531c-0.25,0.18-0.493,0.35-0.734,0.511   c-0.007-0.016-0.02-0.041-0.03-0.051C10.625,66.854,11.262,62.565,14.184,59.729z M94.344,36.458   C85,53.162,78.723,60.053,70.212,68.671C57.454,81.585,37.261,93.763,33.749,95.056c-1.08,0.401-2.313,0.496-3.563,0.286   c-2.823-0.471-5.192-2.36-6.337-5.063c-0.188-0.445-0.318-0.938-0.403-1.471c-0.153-0.965-0.127-2.053,0.089-3.174   c0.374-1.91,1.315-3.897,2.922-5.459c2.601-2.532,7.005-5.8,12.112-9.598c0.215-0.156,0.44-0.321,0.655-0.491   c4.585-3.403,9.616-7.165,14.345-11.149c0.906-0.76,1.807-1.53,2.677-2.302c3.229-2.861,6.382-6.21,9.335-9.643   c4.314-5.03,8.201-10.239,11.26-14.377c0.217-0.299,0.438-0.596,0.645-0.881c1.786-2.421,3.326-4.508,4.489-5.936   c0.98-1.205,2.037-1.946,3.083-2.392c1.078-0.449,2.142-0.584,3.089-0.549c0.373,0.019,0.73,0.05,1.065,0.105   c1.389,0.23,2.785,0.834,3.927,1.696C96.73,27.345,96.144,33.24,94.344,36.458z"/>
</g>
</svg>